FWD
version=1
nRows=30
nColumns=23
inDegrees=yes
endheader
time	platform_rz	pelvis_rx	pelvis_ry	pelvis_rz	pelvis_tx	pelvis_ty	pelvis_tz	LHip_rz	LKnee_rz	RHip_rz	RKnee_rz	platform_rz_u	pelvis_rx_u	pelvis_ry_u	pelvis_rz_u	pelvis_tx_u	pelvis_ty_u	pelvis_tz_u	LHip_rz_u	LKnee_rz_u	RHip_rz_u	RKnee_rz_u
      0.50000000	    -10.00000000	     -0.00000000	      0.00000000	     -0.00000000	      0.11739148	      0.75974725	      0.00000000	     -4.42983433	    -41.24663662	     48.00940421	    -61.95143037	     -0.00000000	     -0.00000000	      0.00000000	      0.00000000	      0.63085361	     -0.73617931	      0.00000000	     12.27921500	    -91.33432419	     36.78562404	    -79.37388796
      0.50100000	    -10.00000000	     -0.00000000	      0.00000000	     -0.00000000	      0.11802007	      0.75902420	      0.00000000	     -4.41754829	    -41.33797724	     48.04618901	    -62.03080569	     -0.00000000	     -0.00000000	      0.00000000	      0.00000000	      0.63253949	     -0.74595402	      0.00000000	     12.27467912	    -91.33018180	     36.78635613	    -79.37306134
      0.50200000	    -10.00000000	     -0.00000000	      0.00000000	     -0.00000000	      0.11864866	      0.75830115	      0.00000000	     -4.40526226	    -41.42931786	     48.08297381	    -62.11018100	     -0.00000000	     -0.00000000	      0.00000000	      0.00000000	      0.63422537	     -0.75572873	      0.00000000	     12.27014325	    -91.32603941	     36.78708823	    -79.37223472
      0.50300000	    -10.00000000	     -0.00000000	      0.00000000	     -0.00000000	      0.11927726	      0.75757809	      0.00000000	     -4.39297622	    -41.52065847	     48.11975862	    -62.18955632	     -0.00000000	     -0.00000000	      0.00000000	      0.00000000	      0.63591125	     -0.76550344	      0.00000000	     12.26560737	    -91.32189701	     36.78782032	    -79.37140809
      0.50400000	    -10.00000000	     -0.00000000	      0.00000000	     -0.00000000	      0.11990585	      0.75685504	      0.00000000	     -4.38069018	    -41.61199909	     48.15654342	    -62.26893163	     -0.00000000	     -0.00000000	      0.00000000	      0.00000000	      0.63759713	     -0.77527815	      0.00000000	     12.26107149	    -91.31775462	     36.78855241	    -79.37058147
      0.50500000	    -10.00000000	     -0.00000000	      0.00000000	     -0.00000000	      0.12053444	      0.75613198	      0.00000000	     -4.36840414	    -41.70333971	     48.19332822	    -62.34830694	     -0.00000000	     -0.00000000	      0.00000000	      0.00000000	      0.63928301	     -0.78505286	      0.00000000	     12.25653562	    -91.31361223	     36.78928451	    -79.36975485
      0.50600000	    -10.00000000	     -0.00000000	      0.00000000	     -0.00000000	      0.12116304	      0.75540893	      0.00000000	     -4.35611810	    -41.79468033	     48.23011302	    -62.42768226	     -0.00000000	     -0.00000000	      0.00000000	      0.00000000	      0.64096889	     -0.79482757	      0.00000000	     12.25199974	    -91.30946984	     36.79001660	    -79.36892823
      0.50700000	    -10.00000000	     -0.00000000	      0.00000000	     -0.00000000	      0.12179163	      0.75468588	      0.00000000	     -4.34383206	    -41.88602094	     48.26689782	    -62.50705757	     -0.00000000	     -0.00000000	      0.00000000	      0.00000000	      0.64265477	     -0.80460228	      0.00000000	     12.24746387	    -91.30532745	     36.79074870	    -79.36810161
      0.50800000	    -10.00000000	     -0.00000000	      0.00000000	     -0.00000000	      0.12242022	      0.75396282	      0.00000000	     -4.33154602	    -41.97736156	     48.30368263	    -62.58643289	     -0.00000000	     -0.00000000	      0.00000000	      0.00000000	      0.64434065	     -0.81437699	      0.00000000	     12.24292799	    -91.30118505	     36.79148079	    -79.36727499
      0.50900000	    -10.00000000	     -0.00000000	      0.00000000	     -0.00000000	      0.12304882	      0.75323977	      0.00000000	     -4.31925998	    -42.06870218	     48.34046743	    -62.66580820	     -0.00000000	     -0.00000000	      0.00000000	      0.00000000	      0.64602654	     -0.82415170	      0.00000000	     12.23839211	    -91.29704266	     36.79221289	    -79.36644836
      0.51000000	    -10.00000000	     -0.00000000	      0.00000000	     -0.00000000	      0.12367741	      0.75251671	      0.00000000	     -4.30697394	    -42.16004280	     48.37725223	    -62.74518352	     -0.00000000	     -0.00000000	      0.00000000	      0.00000000	      0.64771242	     -0.83392641	      0.00000000	     12.23385624	    -91.29290027	     36.79294498	    -79.36562174
      0.51100000	    -10.00000000	     -0.00000000	      0.00000000	     -0.00000000	      0.12430600	      0.75179366	      0.00000000	     -4.29468790	    -42.25138342	     48.41403703	    -62.82455883	     -0.00000000	     -0.00000000	      0.00000000	      0.00000000	      0.64939830	     -0.84370112	      0.00000000	     12.22932036	    -91.28875788	     36.79367708	    -79.36479512
      0.51200000	    -10.00000000	     -0.00000000	      0.00000000	     -0.00000000	      0.12493460	      0.75107061	      0.00000000	     -4.28240186	    -42.34272403	     48.45082184	    -62.90393415	     -0.00000000	     -0.00000000	      0.00000000	      0.00000000	      0.65108418	     -0.85347583	      0.00000000	     12.22478449	    -91.28461549	     36.79440917	    -79.36396850
      0.51300000	    -10.00000000	     -0.00000000	      0.00000000	     -0.00000000	      0.12556319	      0.75034755	      0.00000000	     -4.27011582	    -42.43406465	     48.48760664	    -62.98330946	     -0.00000000	     -0.00000000	      0.00000000	      0.00000000	      0.65277006	     -0.86325053	      0.00000000	     12.22024861	    -91.28047309	     36.79514126	    -79.36314188
      0.51400000	    -10.00000000	     -0.00000000	      0.00000000	     -0.00000000	      0.12619179	      0.74962450	      0.00000000	     -4.25782978	    -42.52540527	     48.52439144	    -63.06268478	     -0.00000000	     -0.00000000	      0.00000000	      0.00000000	      0.65445594	     -0.87302524	      0.00000000	     12.21571273	    -91.27633070	     36.79587336	    -79.36231526
      0.51500000	    -10.00000000	     -0.00000000	      0.00000000	     -0.00000000	      0.12682038	      0.74890144	      0.00000000	     -4.24554374	    -42.61674589	     48.56117624	    -63.14206009	     -0.00000000	     -0.00000000	      0.00000000	      0.00000000	      0.65614182	     -0.88279995	      0.00000000	     12.21117686	    -91.27218831	     36.79660545	    -79.36148864
      0.51600000	    -10.00000000	     -0.00000000	      0.00000000	     -0.00000000	      0.12744897	      0.74817839	      0.00000000	     -4.23325770	    -42.70808650	     48.59796104	    -63.22143541	     -0.00000000	     -0.00000000	      0.00000000	      0.00000000	      0.65782770	     -0.89257466	      0.00000000	     12.20664098	    -91.26804592	     36.79733755	    -79.36066201
      0.51700000	    -10.00000000	     -0.00000000	      0.00000000	     -0.00000000	      0.12807757	      0.74745534	      0.00000000	     -4.22097167	    -42.79942712	     48.63474585	    -63.30081072	     -0.00000000	     -0.00000000	      0.00000000	      0.00000000	      0.65951359	     -0.90234937	      0.00000000	     12.20210511	    -91.26390353	     36.79806964	    -79.35983539
      0.51800000	    -10.00000000	     -0.00000000	      0.00000000	     -0.00000000	      0.12873270	      0.74657836	      0.00000000	     -4.20875774	    -42.89070182	     48.67154203	    -63.38017272	     -0.00000000	     -0.00000000	      0.00000000	      0.00000000	      0.66119866	     -0.91212233	      0.00000000	     12.19747010	    -91.25966223	     36.79877885	    -79.35896500
      0.51900000	    -10.00000000	     -0.00000000	      0.00000000	     -0.00000000	      0.12939413	      0.74566492	      0.00000000	     -4.19656089	    -42.98196092	     48.70834090	    -63.45953157	     -0.00000000	     -0.00000000	      0.00000000	      0.00000000	      0.66288354	     -0.92189487	      0.00000000	     12.19281161	    -91.25539750	     36.79948263	    -79.35808423
      0.52000000	    -10.00000000	     -0.00000000	      0.00000000	     -0.00000000	      0.13006435	      0.74470046	      0.00000000	     -4.18438848	    -43.07319763	     48.74514342	    -63.53888577	     -0.00000000	     -0.00000000	      0.00000000	      0.00000000	      0.66456816	     -0.93166682	      0.00000000	     12.18812101	    -91.25110071	     36.80017837	    -79.35718867
      0.52100000	    -10.00000000	     -0.00000000	      0.00000000	     -0.00000000	      0.13073530	      0.74373176	      0.00000000	     -4.17221810	    -43.16443248	     48.78194624	    -63.61823958	     -0.00000000	     -0.00000000	      0.00000000	      0.00000000	      0.66625276	     -0.94143873	      0.00000000	     12.18342774	    -91.24680126	     36.80087343	    -79.35629188
      0.52200000	    -10.00000000	     -0.00000000	      0.00000000	     -0.00000000	      0.13140626	      0.74276306	      0.00000000	     -4.16004772	    -43.25566733	     48.81874907	    -63.69759339	     -0.00000000	     -0.00000000	      0.00000000	      0.00000000	      0.66793736	     -0.95121063	      0.00000000	     12.17873447	    -91.24250180	     36.80156850	    -79.35539509
      0.52300000	    -10.00000000	     -0.00000000	      0.00000000	     -0.00000000	      0.13207721	      0.74179435	      0.00000000	     -4.14787734	    -43.34690218	     48.85555189	    -63.77694720	     -0.00000000	     -0.00000000	      0.00000000	      0.00000000	      0.66962196	     -0.96098253	      0.00000000	     12.17404120	    -91.23820234	     36.80226357	    -79.35449830
      0.52400000	    -10.00000000	     -0.00000000	      0.00000000	     -0.00000000	      0.13274816	      0.74082565	      0.00000000	     -4.13570697	    -43.43813703	     48.89235472	    -63.85630101	     -0.00000000	     -0.00000000	      0.00000000	      0.00000000	      0.67130655	     -0.97075443	      0.00000000	     12.16934793	    -91.23390289	     36.80295864	    -79.35360151
      0.52500000	    -10.00000000	     -0.00000000	      0.00000000	     -0.00000000	      0.13341912	      0.73985695	      0.00000000	     -4.12353659	    -43.52937188	     48.92915754	    -63.93565482	     -0.00000000	     -0.00000000	      0.00000000	      0.00000000	      0.67299115	     -0.98052633	      0.00000000	     12.16465466	    -91.22960343	     36.80365370	    -79.35270472
      0.52600000	    -10.00000000	     -0.00000000	      0.00000000	     -0.00000000	      0.13409007	      0.73888824	      0.00000000	     -4.11136621	    -43.62060674	     48.96596037	    -64.01500863	     -0.00000000	     -0.00000000	      0.00000000	      0.00000000	      0.67467575	     -0.99029823	      0.00000000	     12.15996139	    -91.22530397	     36.80434877	    -79.35180793
      0.52700000	    -10.00000000	     -0.00000000	      0.00000000	     -0.00000000	      0.13476102	      0.73791954	      0.00000000	     -4.09919583	    -43.71184159	     49.00276319	    -64.09436244	     -0.00000000	     -0.00000000	      0.00000000	      0.00000000	      0.67636035	     -1.00007013	      0.00000000	     12.15526812	    -91.22100452	     36.80504384	    -79.35091114
      0.52800000	    -10.00000000	     -0.00000000	      0.00000000	     -0.00000000	      0.13543198	      0.73695084	      0.00000000	     -4.08702545	    -43.80307644	     49.03956601	    -64.17371625	     -0.00000000	     -0.00000000	      0.00000000	      0.00000000	      0.67804495	     -1.00984203	      0.00000000	     12.15057485	    -91.21670506	     36.80573890	    -79.35001435
      0.52900000	    -10.00000000	     -0.00000000	      0.00000000	     -0.00000000	      0.13610884	      0.73594782	      0.00000000	     -4.07487162	    -43.89429612	     49.07637126	    -64.25306688	     -0.00000000	     -0.00000000	      0.00000000	      0.00000000	      0.67972937	     -1.01961353	      0.00000000	     12.14586015	    -91.21238420	     36.80642846	    -79.34910755
